<svg xmlns="http://www.w3.org/2000/svg" viewBox="0 0 128 128" width="128" height="128">
<!-- Deathless : classe_bavaroise_a (Bavaroise, variante A : chope). Généré par ArtSources/Icones/generer_icones.py -->
<polygon fill="#4e5864" points="64,2 117.7,33 117.7,95 64,126 10.3,95 10.3,33"/>
<polygon fill="#8793a0" points="64,2 117.7,33 108.2,38.5 64,13"/>
<polygon fill="#8793a0" points="117.7,33 117.7,95 108.2,89.5 108.2,38.5"/>
<polygon fill="#4e5864" points="117.7,95 64,126 64,115 108.2,89.5"/>
<polygon fill="#8793a0" points="64,126 10.3,95 19.8,89.5 64,115"/>
<polygon fill="#8793a0" points="10.3,95 10.3,33 19.8,38.5 19.8,89.5"/>
<polygon fill="#c3cbd3" points="10.3,33 64,2 64,13 19.8,38.5"/>
<polygon fill="#2a4a7a" points="19.8,89.5 19.8,38.5 64,13 108.2,38.5"/>
<polygon fill="#1c3358" points="108.2,38.5 108.2,89.5 64,115 19.8,89.5"/>
<polygon fill="#4e5864" points="75.5,59.1 88.4,58.5 92.8,68.4 92.8,78.9 88.5,86.4 75.5,85.9 75.5,94.1 92.5,93.6 100.7,81.1 100.7,66.6 92.6,51.5 75.5,50.9"/>
<polygon fill="#4e5864" points="75.5,55 90.5,55 88.4,58.5 75.5,59.1"/>
<polygon fill="#c3cbd3" points="75.5,55 90.5,55 92.6,51.5 75.5,50.9"/>
<polygon fill="#8793a0" points="90.5,55 96.8,67.5 92.8,68.4 88.4,58.5"/>
<polygon fill="#8793a0" points="90.5,55 96.8,67.5 100.7,66.6 92.6,51.5"/>
<polygon fill="#c3cbd3" points="96.8,67.5 96.8,80 92.8,78.9 92.8,68.4"/>
<polygon fill="#4e5864" points="96.8,67.5 96.8,80 100.7,81.1 100.7,66.6"/>
<polygon fill="#c3cbd3" points="96.8,80 90.5,90 88.5,86.4 92.8,78.9"/>
<polygon fill="#4e5864" points="96.8,80 90.5,90 92.5,93.6 100.7,81.1"/>
<polygon fill="#c3cbd3" points="90.5,90 75.5,90 75.5,85.9 88.5,86.4"/>
<polygon fill="#4e5864" points="90.5,90 75.5,90 75.5,94.1 92.5,93.6"/>
<polygon fill="#8a4a30" points="36.8,45 79.2,45 78,97.5 74.2,102.5 41.8,102.5 38,97.5"/>
<polygon fill="#8a4a30" points="79.2,45 78,97.5 74.2,102.5 41.8,102.5 45.6,94.9 68.4,94.9 71,91.4 71.9,54.6"/>
<polygon fill="#b0603f" points="41.8,102.5 38,97.5 43,91.4 45.6,94.9"/>
<polygon fill="#cf8460" points="38,97.5 36.8,45 79.2,45 71.9,54.6 42.1,54.6 43,91.4"/>
<polygon fill="#b0603f" points="42.1,54.6 71.9,54.6 71,91.4 68.4,94.9 45.6,94.9 43,91.4"/>
<polygon fill="#4e5864" points="37,59.7 78.8,59.7 78.8,52.8 37,52.8"/>
<polygon fill="#4e5864" points="37,56.2 78.8,56.2 78.8,59.7 37,59.7"/>
<polygon fill="#c3cbd3" points="37,56.2 78.8,56.2 78.8,52.8 37,52.8"/>
<polygon fill="#4e5864" points="37,93.4 78.8,93.4 78.8,86.6 37,86.6"/>
<polygon fill="#4e5864" points="37,90 78.8,90 78.8,93.4 37,93.4"/>
<polygon fill="#c3cbd3" points="37,90 78.8,90 78.8,86.6 37,86.6"/>
<polygon fill="#d8c8a4" points="33,47.5 30.5,37.5 40.5,27.5 53,25 65.5,28.8 75.5,23.8 85.5,35 83,47.5"/>
<polygon fill="#f6ecd4" points="55.5,37.5 33,47.5 30.5,37.5"/>
<polygon fill="#fffaf0" points="55.5,37.5 30.5,37.5 40.5,27.5 53,25 65.5,28.8 75.5,23.8"/>
<polygon fill="#f6ecd4" points="55.5,37.5 75.5,23.8 85.5,35"/>
<polygon fill="#d8c8a4" points="55.5,37.5 85.5,35 83,47.5 33,47.5"/>
</svg>
