<svg xmlns="http://www.w3.org/2000/svg" viewBox="0 0 128 128" width="128" height="128">
<!-- Deathless : emote_salut (Salut). Généré par ArtSources/Icones/generer_icones.py -->
<polygon fill="#999485" points="52,61.3 47.5,29.3 37.5,30.7 42,62.7"/>
<polygon fill="#c7bfa8" points="47,62 42.5,30 47.5,29.3 52,61.3"/>
<polygon fill="#c7bfa8" points="47,62 42.5,30 37.5,30.7 42,62.7"/>
<polygon fill="#999485" points="63,61.8 61.5,19.8 51.5,20.2 53,62.2"/>
<polygon fill="#999485" points="58,62 56.5,20 61.5,19.8 63,61.8"/>
<polygon fill="#ebe6cc" points="58,62 56.5,20 51.5,20.2 53,62.2"/>
<polygon fill="#999485" points="74,62.2 75.5,22.2 65.5,21.8 64,61.8"/>
<polygon fill="#999485" points="69,62 70.5,22 75.5,22.2 74,62.2"/>
<polygon fill="#ebe6cc" points="69,62 70.5,22 65.5,21.8 64,61.8"/>
<polygon fill="#999485" points="84.9,62.7 89.4,32.7 79.6,31.3 75.1,61.3"/>
<polygon fill="#999485" points="80,62 84.5,32 89.4,32.7 84.9,62.7"/>
<polygon fill="#ebe6cc" points="80,62 84.5,32 79.6,31.3 75.1,61.3"/>
<polygon fill="#999485" points="47.9,80.9 34.3,63.5 30.6,54.1 21.4,57.9 25.7,68.5 40.1,87.1"/>
<polygon fill="#c7bfa8" points="44,84 30,66 34.3,63.5 47.9,80.9"/>
<polygon fill="#c7bfa8" points="44,84 30,66 25.7,68.5 40.1,87.1"/>
<polygon fill="#c7bfa8" points="30,66 26,56 30.6,54.1 34.3,63.5"/>
<polygon fill="#c7bfa8" points="30,66 26,56 21.4,57.9 25.7,68.5"/>
<polygon fill="#999485" points="42,58 86,58 88,94 74,110 54,110 40,94"/>
<polygon fill="#999485" points="86,58 88,94 74,110 54,110 56.8,95.7 66.8,95.7 73.8,87.7 72.8,69.7"/>
<polygon fill="#c7bfa8" points="54,110 40,94 49.8,87.7 56.8,95.7"/>
<polygon fill="#ebe6cc" points="40,94 42,58 86,58 72.8,69.7 50.8,69.7 49.8,87.7"/>
<polygon fill="#c7bfa8" points="50.8,69.7 72.8,69.7 73.8,87.7 66.8,95.7 56.8,95.7 49.8,87.7"/>
<polygon fill="#a8641a" points="104,24 107.2,35 112,46 112,46 112.8,33 104,24"/>
<polygon fill="#e8a53a" points="104,24 110,34 107.2,35 104,24"/>
<polygon fill="#e8a53a" points="104,24 110,34 112.8,33 104,24"/>
<polygon fill="#e8a53a" points="110,34 112,46 112,46 107.2,35"/>
<polygon fill="#a8641a" points="110,34 112,46 112,46 112.8,33"/>
<polygon fill="#a8641a" points="106,58 109.2,67.2 114,78 114,78 114.8,64.8 106,58"/>
<polygon fill="#e8a53a" points="106,58 112,66 109.2,67.2 106,58"/>
<polygon fill="#e8a53a" points="106,58 112,66 114.8,64.8 106,58"/>
<polygon fill="#e8a53a" points="112,66 114,78 114,78 109.2,67.2"/>
<polygon fill="#a8641a" points="112,66 114,78 114,78 114.8,64.8"/>
<polygon fill="#a8641a" points="24,24 15.2,33 16,46 16,46 20.8,35 24,24"/>
<polygon fill="#ffd166" points="24,24 18,34 15.2,33 24,24"/>
<polygon fill="#a8641a" points="24,24 18,34 20.8,35 24,24"/>
<polygon fill="#ffd166" points="18,34 16,46 16,46 15.2,33"/>
<polygon fill="#a8641a" points="18,34 16,46 16,46 20.8,35"/>
<polygon fill="#a8641a" points="22,58 13.2,64.8 14,78 14,78 18.8,67.2 22,58"/>
<polygon fill="#ffd166" points="22,58 16,66 13.2,64.8 22,58"/>
<polygon fill="#a8641a" points="22,58 16,66 18.8,67.2 22,58"/>
<polygon fill="#ffd166" points="16,66 14,78 14,78 13.2,64.8"/>
<polygon fill="#a8641a" points="16,66 14,78 14,78 18.8,67.2"/>
</svg>
